<svg xmlns="http://www.w3.org/2000/svg" width="15.358" height="18.722" viewBox="0 0 15.358 18.722"><defs><style>.a{fill:#999;}</style></defs><g transform="translate(7.679 9.361)"><g transform="translate(-7.679 -9.361)"><path class="a" d="M-378.853,53.089a5.027,5.027,0,0,1-.19.913.973.973,0,0,1-.42.459c-.59.3-1.242.489-1.8.838-.737.465-.76,1.22,0,1.641a9.326,9.326,0,0,0,2.607,1.007,15.355,15.355,0,0,0,7.995-.367,4.62,4.62,0,0,0,1.272-.659.869.869,0,0,0,.49-.775.869.869,0,0,0-.478-.783,6.107,6.107,0,0,0-1.684-.8c-.44-.137-.643-.336-.669-.776a4.845,4.845,0,0,0-.128-.638,7.5,7.5,0,0,1,3.138,1.223,2.947,2.947,0,0,1,.623,3.7,2.67,2.67,0,0,0-.524,1.411c-.3,2.906-.627,5.81-.879,8.721a2.5,2.5,0,0,1-1.69,2.192,10.965,10.965,0,0,1-5.662.681,6.655,6.655,0,0,1-3.522-1.2,2.131,2.131,0,0,1-.832-1.56q-.474-4.691-.977-9.38a1.025,1.025,0,0,0-.177-.5,2.813,2.813,0,0,1-.662-2.326,2.813,2.813,0,0,1,1.388-1.98,4.206,4.206,0,0,1,.839-.424C-380.185,53.491-379.565,53.313-378.853,53.089Zm6.432,14.715c-.022.432-.165.914.4.972.494.051.769-.291.852-.77.031-.182.06-.364.079-.548.236-2.3.479-4.591.694-6.889a2.28,2.28,0,0,0-.191-.734,2.846,2.846,0,0,0-.869.321,1.113,1.113,0,0,0-.264.7c-.245,2.334-.473,4.668-.7,6.944Zm-5.784.539c-.163-1.643-.307-3.113-.456-4.583-.1-1.011-.2-2.022-.318-3.032-.065-.571-.534-1.021-.981-.921-.59.132-.359.624-.328.96.2,2.151.431,4.3.665,6.448a2.872,2.872,0,0,0,.243,1.122,1.168,1.168,0,0,0,.8.4c.13.014.3-.318.369-.394Zm3.491-3.416h-.006c0-1.258-.008-2.517,0-3.775,0-.459-.174-.691-.649-.688s-.633.261-.632.707q.013,3.692,0,7.384c0,.45.126.776.622.808.436.028.655-.255.658-.827.009-1.2.006-2.406.006-3.609Z" transform="translate(383.061 -52.468)"/><path class="a" d="M-310.058,44.3c.333,0,.667-.013,1,0a1.811,1.811,0,0,1,1.8,1.808c.014.333,0,.666,0,1,.011.485-.327.6-.7.6s-.672-.138-.651-.624c.071-1.665-.055-1.447-1.487-1.453s-1.5-.2-1.456,1.426a.557.557,0,0,1-.147.488.557.557,0,0,1-.483.164c-.4,0-.738-.127-.724-.633.008-.259,0-.518,0-.778a1.835,1.835,0,0,1,.529-1.471,1.835,1.835,0,0,1,1.471-.529h.833Z" transform="translate(317.78 -44.29)"/></g></g></svg>