<svg xmlns="http://www.w3.org/2000/svg" xmlns:xlink="http://www.w3.org/1999/xlink" width="12.746" height="12.4" viewBox="0 0 12.746 12.4"><defs><style>.a{fill:none;}.b{clip-path:url(#a);}.c{fill:#666;}</style><clipPath id="a"><rect class="a" width="12.746" height="12.4"/></clipPath></defs><g class="b"><path class="c" d="M-893.7,742.021a.268.268,0,0,1-.156-.282q0-2.53,0-5.059c0-.679,0-1.358,0-2.037a.186.186,0,0,1,.051-.122c.712-.667,1.37-1.388,2.04-2.1.02-.021.035-.046.069-.089a.573.573,0,0,1,.049.116,1.035,1.035,0,0,1,0,.142q0,4.56,0,9.119a.316.316,0,0,1-.141.31Z" transform="translate(903.092 -729.621)"/><path class="c" d="M-1080.275,923.036a.277.277,0,0,1-.15-.286q0-2.344,0-4.687a.187.187,0,0,1,.087-.169q.813-.606,1.619-1.222c.151-.115.293-.242.44-.363.016-.013.033-.023.058-.041,0,.035,0,.061,0,.086q0,3.224,0,6.448a.266.266,0,0,1-.143.236Z" transform="translate(1086.699 -910.636)"/><path class="c" d="M-1267.075,1058.511a.291.291,0,0,1-.146-.3q.006-1.507,0-3.014a.156.156,0,0,1,.112-.169,17.441,17.441,0,0,0,2.01-1.061l.08-.045c0,.042.006.072.006.1q0,2.117,0,4.235a.264.264,0,0,1-.146.249Z" transform="translate(1270.533 -1046.11)"/><path class="c" d="M-1453.857,1149.839a.3.3,0,0,1-.143-.3c0-.7,0-1.4,0-2.1,0-.074.015-.106.1-.114a5.934,5.934,0,0,0,1.144-.282c.3-.093.6-.2.9-.295l.072-.022c0,.032.007.059.007.086,0,.92,0,1.839,0,2.759a.267.267,0,0,1-.154.269Z" transform="translate(1454.348 -1137.438)"/><path class="c" d="M-1463.341,580.679h0l-.457.172h0l-1.66.581a.2.2,0,0,0-.072.377c.135.119.272.235.407.353.053.046.1.094.161.145-.027.033-.048.06-.07.086a28.864,28.864,0,0,1-2.4,2.5,22.348,22.348,0,0,1-2.416,1.949c-.46.318-.933.62-1.413.907a15.478,15.478,0,0,1-2.955,1.375,8.86,8.86,0,0,1-1.486.386c-.124.019-.241.036-.3.165v.1c.046.08.1.153.2.151a.977.977,0,0,0,.149-.019,11.129,11.129,0,0,0,2.24-.655,18.624,18.624,0,0,0,4.089-2.293c.384-.279.754-.579,1.124-.876a23.375,23.375,0,0,0,1.871-1.7q.84-.838,1.605-1.744c.044-.052.073-.057.125-.01.176.159.357.314.537.47a.2.2,0,0,0,.356-.116c.1-.5.193-1.007.291-1.51.014-.074.03-.147.047-.221h0l0-.011.022-.1h0l.082-.385A.063.063,0,0,0-1463.341,580.679Z" transform="translate(1476 -580.366)"/><g transform="translate(1.19)"><path class="c" d="M-1396.554,565.09a1.384,1.384,0,0,1-.148.664,1.389,1.389,0,0,1-.389.457,1.778,1.778,0,0,1-.563.279,3.45,3.45,0,0,1-.66.131v.761h-.99V566.6a2.9,2.9,0,0,1-.622-.152,1.873,1.873,0,0,1-.529-.292,1.438,1.438,0,0,1-.372-.448,1.358,1.358,0,0,1-.152-.622h1.6a.479.479,0,0,0,.212.4.787.787,0,0,0,.44.127,1.058,1.058,0,0,0,.182-.017.755.755,0,0,0,.182-.055.413.413,0,0,0,.144-.106.236.236,0,0,0,.059-.161.357.357,0,0,0-.034-.161.286.286,0,0,0-.135-.118,1.331,1.331,0,0,0-.283-.093q-.182-.042-.47-.093a3.142,3.142,0,0,1-1.375-.486,1.069,1.069,0,0,1-.419-.893,1.161,1.161,0,0,1,.14-.584,1.277,1.277,0,0,1,.359-.406,1.713,1.713,0,0,1,.5-.25,3.722,3.722,0,0,1,.571-.131v-.77h.99v.761a3.2,3.2,0,0,1,.592.123,1.9,1.9,0,0,1,.516.245,1.244,1.244,0,0,1,.372.4,1.3,1.3,0,0,1,.161.6h-1.523a.442.442,0,0,0-.195-.338.631.631,0,0,0-.372-.127.945.945,0,0,0-.343.063.263.263,0,0,0-.165.275q0,.135.216.224a3.054,3.054,0,0,0,.5.152q.287.063.558.11t.389.08a2.681,2.681,0,0,1,.4.165,1.266,1.266,0,0,1,.334.245,1.126,1.126,0,0,1,.228.347A1.2,1.2,0,0,1-1396.554,565.09Z" transform="translate(1400.979 -561.291)"/></g></g></svg>