<svg xmlns="http://www.w3.org/2000/svg" xmlns:xlink="http://www.w3.org/1999/xlink" width="10.616" height="12.433" viewBox="0 0 10.616 12.433"><defs><style>.a{fill:none;}.b{clip-path:url(#a);}.c{fill:#666;}</style><clipPath id="a"><rect class="a" width="10.616" height="12.433"/></clipPath></defs><g class="b"><path class="c" d="M-600.034,318.111h-10.611c0-.281-.006-.555,0-.829a.35.35,0,0,1,.091-.207,3.853,3.853,0,0,0,.8-1.473,8.521,8.521,0,0,0,.385-2.653,3.714,3.714,0,0,1,.473-1.919,3.683,3.683,0,0,1,2.177-1.618c.068-.022.139-.039.209-.058l.217-.058v-.661a.936.936,0,0,1,.942-.907.925.925,0,0,1,.982.849,5.662,5.662,0,0,1,0,.6c0,.089.032.121.124.143a4.035,4.035,0,0,1,2.12,1.207,3.08,3.08,0,0,1,.781,1.751c.053.509.047,1.022.09,1.532a6.521,6.521,0,0,0,.776,2.762c.089.156.215.293.313.445a.64.64,0,0,1,.128.274C-600.023,317.56-600.034,317.83-600.034,318.111Z" transform="translate(610.647 -307.728)"/><path class="c" d="M-462.789,737.039h1.148c.092,0,.126.026.139.11a1.23,1.23,0,0,1-1.063,1.4,1.3,1.3,0,0,1-1.493-.924,2.2,2.2,0,0,1-.018-.476c0-.084.043-.113.135-.111C-463.554,737.042-463.172,737.039-462.789,737.039Z" transform="translate(468.094 -726.137)"/></g></svg>