<svg xmlns="http://www.w3.org/2000/svg" xmlns:xlink="http://www.w3.org/1999/xlink" width="10.416" height="13.255" viewBox="0 0 10.416 13.255"><defs><style>.a{fill:none;}.b{clip-path:url(#a);}.c{fill:#fff;}</style><clipPath id="a"><rect class="a" width="10.416" height="13.255"/></clipPath></defs><g class="b"><path class="c" d="M-1022.857,380.435a3.1,3.1,0,0,1,1.1.2,3.935,3.935,0,0,0-1.076-.581,8.455,8.455,0,0,0-4.71-.242,4.186,4.186,0,0,0-2.316,1.239,2.485,2.485,0,0,0-.726,1.8c.017.524,0,1.05,0,1.575,0,.3,0,.305.31.305h4.536a3.1,3.1,0,0,1-.237-1.189A3.116,3.116,0,0,1-1022.857,380.435Z" transform="translate(1030.583 -372.983)"/><path class="c" d="M-976.078,213.617a3.026,3.026,0,0,0,3.025-3.036,3.006,3.006,0,0,0-3.006-3.025,3.035,3.035,0,0,0-3.048,3.035A3.056,3.056,0,0,0-976.078,213.617Z" transform="translate(981.085 -207.557)"/><path class="c" d="M-896.81,412.5a2.693,2.693,0,0,0-2.69,2.69,2.693,2.693,0,0,0,2.69,2.69,2.693,2.693,0,0,0,2.69-2.69A2.693,2.693,0,0,0-896.81,412.5Zm-.465,4.78v-1.539H-898.7v-.858h1.423v-1.531h.974v1.531h1.431v.858H-896.3v1.539Z" transform="translate(904.536 -404.625)"/></g></svg>