<svg xmlns="http://www.w3.org/2000/svg" xmlns:xlink="http://www.w3.org/1999/xlink" width="18.024" height="13.549" viewBox="0 0 18.024 13.549"><defs><style>.a{fill:none;}.b{clip-path:url(#a);}.c{fill:#fff;}</style><clipPath id="a"><rect class="a" width="18.024" height="13.549"/></clipPath></defs><g class="b"><path class="c" d="M-2239.978,614.252h-4.576a1.638,1.638,0,0,1-1.738-1.717c-.005-1.354,0-2.707,0-4.061,0-.575.017-1.15,0-1.723a1.688,1.688,0,0,1,1.741-1.724c3.064.017,6.128.006,9.192.007a1.634,1.634,0,0,1,1.717,1.717q0,2.892,0,5.785a1.642,1.642,0,0,1-1.718,1.719q-2.308,0-4.616,0Zm.1-5.817c-1.724,0-3.448,0-5.171,0-.192,0-.245.057-.244.246.008,1.281,0,2.563,0,3.844a.633.633,0,0,0,.72.715h9.292c.563,0,.77-.21.771-.781q0-1.882,0-3.764c0-.256,0-.256-.26-.256Zm5.355-1.552c.064-.551-.182-.837-.7-.837h-9.393a.624.624,0,0,0-.672.625c-.013.172.039.225.218.225q5.172-.008,10.344,0C-2234.664,606.893-2234.6,606.887-2234.524,606.883Z" transform="translate(2251.667 -600.704)"/><path class="c" d="M-2369.1,499.273h-1.253c-1.5,0-3-.006-4.5,0a2.545,2.545,0,0,0-2.521,2,2.846,2.846,0,0,0-.062.628c0,1.836,0,3.673,0,5.509a2.626,2.626,0,0,0,.337,1.271,1.563,1.563,0,0,1-1.486-.357,1.849,1.849,0,0,1-.413-.548q-1.293-2.583-2.565-5.178a1.644,1.644,0,0,1,.8-2.355q4.089-2.021,8.181-4.037a1.653,1.653,0,0,1,2.378.821q.484.986.972,1.97C-2369.187,499.081-2369.151,499.164-2369.1,499.273Z" transform="translate(2381.78 -495.988)"/><path class="c" d="M-2202.587,742.533c.621-.462,1.175-.466,1.586-.011a1.046,1.046,0,0,1,.01,1.421c-.408.458-.97.458-1.6,0a1.089,1.089,0,0,1-1.585.013,1.052,1.052,0,0,1-.009-1.422C-2203.77,742.068-2203.221,742.068-2202.587,742.533Z" transform="translate(2211.487 -732.425)"/></g></svg>