<svg xmlns="http://www.w3.org/2000/svg" xmlns:xlink="http://www.w3.org/1999/xlink" width="10.312" height="11.786" viewBox="0 0 10.312 11.786"><defs><style>.a{fill:none;}.b{clip-path:url(#a);}.c{fill:#666;fill-rule:evenodd;}</style><clipPath id="a"><rect class="a" width="10.312" height="11.786"/></clipPath></defs><g class="b"><path class="c" d="M5.156,5.893A1.473,1.473,0,1,1,3.683,7.366,1.473,1.473,0,0,1,5.156,5.893Zm0-4.42A1.478,1.478,0,0,0,3.683,2.946H6.629A1.478,1.478,0,0,0,5.156,1.473ZM8.839,11.786H1.473A1.478,1.478,0,0,1,0,10.312V4.42A1.478,1.478,0,0,1,1.473,2.946H2.21a2.946,2.946,0,1,1,5.893,0h.737A1.478,1.478,0,0,1,10.312,4.42v5.893A1.478,1.478,0,0,1,8.839,11.786Z"/></g></svg>