<svg xmlns="http://www.w3.org/2000/svg" xmlns:xlink="http://www.w3.org/1999/xlink" width="16.516" height="13.226" viewBox="0 0 16.516 13.226"><defs><style>.a{fill:none;}.b{clip-path:url(#a);}.c{fill:#fff;}</style><clipPath id="a"><rect class="a" width="16.516" height="13.226"/></clipPath></defs><g class="b"><path class="c" d="M-612.511,85h.329a.82.82,0,0,1,.426.644c.061.46.164.914.25,1.373.452.072.879.162,1.31.2a.713.713,0,0,1,.712.546V87.9a.828.828,0,0,0-.053.153c-.2,1.4-.409,2.791-.584,4.189a4.716,4.716,0,0,0-.092,2.009,5.319,5.319,0,0,1,.136.741c.038.249.033.552-.215.635-.36.121-.369.371-.4.654-.022.206-.057.411-.095.616a.575.575,0,0,1-.743.535c-1.1-.166-2.2-.345-3.308-.5a4.854,4.854,0,0,0-1.392-.092c-1.574.252-3.138.569-4.7.867-.878.167-1.755.346-2.632.52h-.263a.757.757,0,0,1-.449-.6q-.627-3.551-1.266-7.1c-.143-.792-.3-1.582-.456-2.372v-.2a.777.777,0,0,1,.682-.523c.636-.1,1.267-.236,1.9-.342a.359.359,0,0,0,.352-.373c.015-.239.058-.477.09-.715a.572.572,0,0,1,.718-.564c1.028.145,2.053.311,3.082.446a4.57,4.57,0,0,0,1.656.1c.83-.189,1.673-.319,2.509-.482S-613.343,85.169-612.511,85Zm-9.408,1.649-1.112,7.9,11.212,1.658,1.108-7.9Zm-2.074,6.121h.073l.634-4.53-1.47.282Zm4.32,3.525.01-.075-3.811-.565.241,1.311Zm5.384-9.753,0,.067,1.6.239-.106-.587Z" transform="translate(626 -85)"/><path class="c" d="M-560.137,161.058c.237.475.451.905.665,1.336s.417.843.644,1.3l1.036-1.088.684,3.786-9.629-1.423a1.935,1.935,0,0,1,1.8-1.355,4.754,4.754,0,0,1,1.972.257.437.437,0,0,0,.579-.158C-561.658,162.826-560.9,161.958-560.137,161.058Z" transform="translate(570.637 -156.053)"/><path class="c" d="M-542.164,139.825a1.073,1.073,0,0,1,1.1-1.1,1.094,1.094,0,0,1,1.078,1.1,1.1,1.1,0,0,1-1.093,1.119A1.081,1.081,0,0,1-542.164,139.825Z" transform="translate(547.682 -135.19)"/></g></svg>