<svg xmlns="http://www.w3.org/2000/svg" xmlns:xlink="http://www.w3.org/1999/xlink" width="9.697" height="11.786" viewBox="0 0 9.697 11.786"><defs><style>.a{fill:none;}.b{clip-path:url(#a);}.c{fill:#666;}</style><clipPath id="a"><rect class="a" width="9.697" height="11.786"/></clipPath></defs><g class="b"><path class="c" d="M-1025.73,384.583h-4.547c-.3,0-.3,0-.3-.3,0-.509.013-1.019,0-1.528a2.411,2.411,0,0,1,.7-1.749,4.06,4.06,0,0,1,2.247-1.2,8.2,8.2,0,0,1,4.569.235,3.429,3.429,0,0,1,1.825,1.435,2.192,2.192,0,0,1,.35,1.217c-.012.534,0,1.068,0,1.6,0,.284,0,.285-.293.285Z" transform="translate(1030.583 -372.798)"/><path class="c" d="M-973.234,210.491a2.936,2.936,0,0,1-2.935,2.945,2.965,2.965,0,0,1-2.939-2.935,2.945,2.945,0,0,1,2.957-2.944A2.916,2.916,0,0,1-973.234,210.491Z" transform="translate(981.026 -207.557)"/></g></svg>