<?xml version="1.0" encoding="utf-8"?>
<!-- Generator: Adobe Illustrator 23.0.4, SVG Export Plug-In . SVG Version: 6.00 Build 0)  -->
<svg version="1.1" id="Layer_1" focusable="false" xmlns="http://www.w3.org/2000/svg" xmlns:xlink="http://www.w3.org/1999/xlink"
	 x="0px" y="0px" viewBox="0 0 320 512" style="enable-background:new 0 0 320 512;" xml:space="preserve">
<style type="text/css">
	.st0{fill:#FFFFFF;}
</style>
<path class="st0" d="M309.8,480.3c-13.6,14.5-50,31.7-97.4,31.7c-120.8,0-147-88.8-147-140.6v-144H17.9c-5.5,0-10-4.5-10-10v-68
	c0-7.2,4.5-13.6,11.3-16c62-21.8,81.5-76,84.3-117.1C104.3,5.3,110,0,119.6,0h70.9c5.5,0,10,4.5,10,10v115.2h83c5.5,0,10,4.4,10,9.9
	v81.7c0,5.5-4.5,10-10,10h-83.4V360c0,34.2,23.7,53.6,68,35.8c4.8-1.9,9-3.2,12.7-2.2c3.5,0.9,5.8,3.4,7.4,7.9l22,64.3
	C312,470.8,313.5,476.4,309.8,480.3L309.8,480.3z"/>
</svg>
