<svg xmlns="http://www.w3.org/2000/svg" width="65.367" height="22.723" viewBox="0 0 65.367 22.723"><defs><style>.a{fill:#2fabf7;}.b{fill:#228fe0;}.c{fill:#0571c1;}</style></defs><g transform="translate(0 0)"><path class="a" d="M43.2,188.105h2.283L44.341,185.2Z" transform="translate(-37.597 -182.502)"/><path class="b" d="M242.105,187.7a2.022,2.022,0,0,0-.83-.1H239.2v1.66h2.075a2.023,2.023,0,0,0,.83-.1.808.808,0,0,0,.311-.726A.577.577,0,0,0,242.105,187.7Z" transform="translate(-208.176 -184.591)"/><path class="c" d="M56.133,164.4v1.245L55.51,164.4H50.634v1.245l-.623-1.245h-6.64a6.317,6.317,0,0,0-2.905.623V164.4H35.8v.623a2.992,2.992,0,0,0-1.971-.623H17.12l-1.141,2.594L14.837,164.4H9.546v1.245L8.923,164.4H4.462l-2.075,4.877L0,174.672H5.292l.623-1.66H7.367l.623,1.66h6.018v-1.245l.519,1.245h3.009l.519-1.245v1.245H32.476v-2.7h.208c.208,0,.208,0,.208.311v2.283h7.471v-.623a6.216,6.216,0,0,0,2.8.623h3.113l.623-1.66h1.453l.623,1.66h6.018v-1.556l.934,1.556H60.8V164.4Zm-35.07,8.716H19.3v-5.707l-2.49,5.707H15.252l-2.49-5.707v5.707H9.234l-.726-1.556H4.98l-.623,1.66H2.386L5.5,165.853H8.093L11,172.8v-6.952h2.8l2.283,4.98,2.075-4.98h2.905Zm7.056-5.707H24.072v1.349h3.943v1.453H24.072v1.453h4.047v1.556h-5.81v-7.367h5.81Zm7.782,3.009a2.6,2.6,0,0,1,.311,1.349v1.453H34.448v-.934a2.472,2.472,0,0,0-.311-1.453c-.311-.311-.623-.311-1.245-.311H31.024v2.7H29.26v-7.367H33.2a3.977,3.977,0,0,1,2.075.311,1.768,1.768,0,0,1,.83,1.66,2.066,2.066,0,0,1-1.245,1.971A1.973,1.973,0,0,1,35.9,170.418Zm3.113,2.7H37.249v-7.367h1.764Zm20.44,0h-2.49l-3.32-5.5v5.5H50.115l-.623-1.556H45.861l-.623,1.66H43.267a3.119,3.119,0,0,1-3.424-3.632,4.253,4.253,0,0,1,.934-2.905,3.27,3.27,0,0,1,2.594-.83h1.66v1.556h-1.66a1.913,1.913,0,0,0-1.349.415,2.436,2.436,0,0,0-.519,1.66,2.257,2.257,0,0,0,.519,1.764,1.654,1.654,0,0,0,1.245.415h.726l2.386-5.707h2.594l2.905,6.952v-6.952h2.594l3.009,5.084v-5.084h1.764v7.159Z" transform="translate(0 -164.4)"/><g transform="translate(26.147 2.698)"><path class="b" d="M358.4,188.105h2.386l-1.141-2.905Z" transform="translate(-338.064 -185.2)"/><path class="b" d="M204.3,283.114V277.2l-2.7,2.905Z" transform="translate(-201.6 -265.268)"/></g><path class="a" d="M136.8,282.8v1.349h3.839V285.6H136.8v1.556h4.254l1.971-2.179-1.868-2.179Z" transform="translate(-119.057 -267.444)"/><path class="b" d="M238.179,282.8H236v1.868h2.283c.623,0,1.038-.311,1.038-.934A1.047,1.047,0,0,0,238.179,282.8Z" transform="translate(-205.392 -267.444)"/><path class="c" d="M161.626,265.069V260.4h-4.358a3.4,3.4,0,0,0-2.179.623V260.4h-4.773a3.292,3.292,0,0,0-2.075.623V260.4h-8.4v.623a4.011,4.011,0,0,0-2.283-.623h-5.6v.623a3.937,3.937,0,0,0-2.386-.623H123.34l-1.453,1.556-1.349-1.556H111.2v10.168h9.131l1.453-1.556,1.349,1.556h5.6v-2.386h.726a6.311,6.311,0,0,0,2.386-.311v2.8h4.669v-2.7h.208c.311,0,.311,0,.311.311v2.386h14.111a4.068,4.068,0,0,0,2.386-.623v.623h4.462a4.66,4.66,0,0,0,2.49-.519h0a3.532,3.532,0,0,0,1.66-3.113A3.974,3.974,0,0,0,161.626,265.069Zm-32.165,1.66h-2.075v2.49h-3.32l-2.075-2.386-2.179,2.386h-6.848v-7.367h6.952l2.075,2.386,2.179-2.386h5.5c1.349,0,2.905.415,2.905,2.386C132.47,266.314,131.018,266.729,129.461,266.729Zm10.376-.415a2.354,2.354,0,0,1,.311,1.349v1.453h-1.764v-.934a2.316,2.316,0,0,0-.311-1.453c-.208-.311-.623-.311-1.245-.311h-1.868v2.7H133.2v-7.367h3.943a4.178,4.178,0,0,1,2.075.311,1.835,1.835,0,0,1,.934,1.66,2.066,2.066,0,0,1-1.245,1.971A1.774,1.774,0,0,1,139.837,266.314ZM147,263.305H142.95v1.349h3.943v1.453H142.95v1.453H147v1.556h-5.81v-7.367H147Zm4.358,5.81h-3.32v-1.556h3.32a.876.876,0,0,0,.726-.207.752.752,0,0,0,0-1.038.877.877,0,0,0-.623-.208c-1.66-.1-3.632,0-3.632-2.283,0-1.038.623-2.179,2.49-2.179h3.424v1.764h-3.216a1.538,1.538,0,0,0-.726.1c-.208.1-.208.311-.208.519,0,.311.208.415.415.519a1.316,1.316,0,0,0,.623.1h.934a2.642,2.642,0,0,1,1.971.623,2.148,2.148,0,0,1,.519,1.556C154.052,268.389,153.118,269.116,151.354,269.116Zm8.923-.726a3.026,3.026,0,0,1-2.179.726h-3.32v-1.556h3.32a.876.876,0,0,0,.726-.207.752.752,0,0,0,0-1.038.877.877,0,0,0-.623-.208c-1.66-.1-3.632,0-3.632-2.283,0-1.038.623-2.179,2.49-2.179h3.424v1.764h-3.113a1.539,1.539,0,0,0-.726.1c-.208.1-.208.311-.208.519,0,.311.1.415.415.519a1.316,1.316,0,0,0,.623.1h.934a2.642,2.642,0,0,1,1.971.623.1.1,0,0,1,.1.1,2.382,2.382,0,0,1,.415,1.453A2.112,2.112,0,0,1,160.277,268.389Z" transform="translate(-96.778 -247.949)"/><path class="b" d="M298.105,283.7a2.023,2.023,0,0,0-.83-.1H295.2v1.66h2.075a2.022,2.022,0,0,0,.83-.1.808.808,0,0,0,.311-.726A.577.577,0,0,0,298.105,283.7Z" transform="translate(-256.913 -268.14)"/><g transform="translate(26.147 2.698)"><path class="b" d="M242.105,187.7a2.022,2.022,0,0,0-.83-.1H239.2v1.66h2.075a2.023,2.023,0,0,0,.83-.1.808.808,0,0,0,.311-.726A.577.577,0,0,0,242.105,187.7Z" transform="translate(-234.323 -187.289)"/><path class="b" d="M358.4,188.105h2.386l-1.141-2.905Z" transform="translate(-338.064 -185.2)"/><path class="b" d="M204.3,283.114V277.2l-2.7,2.905Z" transform="translate(-201.6 -265.268)"/></g><g transform="translate(30.609 15.356)"><path class="b" d="M238.179,282.8H236v1.868h2.283c.623,0,1.038-.311,1.038-.934A1.047,1.047,0,0,0,238.179,282.8Z" transform="translate(-236 -282.8)"/></g><g transform="translate(38.287 15.46)"><path class="b" d="M298.105,283.7a2.023,2.023,0,0,0-.83-.1H295.2v1.66h2.075a2.022,2.022,0,0,0,.83-.1.808.808,0,0,0,.311-.726A.577.577,0,0,0,298.105,283.7Z" transform="translate(-295.2 -283.6)"/></g><path class="a" d="M128.839,268.908l-1.453-1.556v1.764h-3.424l-2.075-2.386-2.283,2.386h-6.848v-7.263h6.952l2.179,2.386,1.038-1.245-2.594-2.594H111.2v10.168h9.131l1.556-1.556,1.349,1.556h5.6Z" transform="translate(-96.778 -247.949)"/><path class="a" d="M21.27,174.568l-1.349-1.453H19.3v-.623l-1.556-1.556L16.7,173.116H15.252l-2.49-5.707v5.707H9.234l-.726-1.556H4.98l-.726,1.556H2.386L5.5,165.853H8.093L11,172.8v-6.952h1.556L11.1,164.4H9.546v1.245L9.027,164.4H4.462l-2.075,4.877L0,174.568H5.4l.623-1.556H7.471l.726,1.556h5.81v-1.245l.519,1.245h3.009l.519-1.245v1.245Z" transform="translate(0 -164.4)"/><path class="a" d="M116.06,194.86l-1.66-1.66,1.245,2.7Z" transform="translate(-99.563 -189.465)"/><g transform="translate(10.272 0.104)"><path class="b" d="M215.488,267.961a3.8,3.8,0,0,0,1.66-2.8l-1.453-1.453a3.07,3.07,0,0,1,.208,1.038,2.111,2.111,0,0,1-.623,1.556,3.026,3.026,0,0,1-2.179.726h-3.32v-1.556h3.32a.875.875,0,0,0,.726-.208.752.752,0,0,0,0-1.038.877.877,0,0,0-.623-.208c-1.66-.1-3.632,0-3.632-2.283,0-1.038.623-1.971,2.179-2.179l-1.141-1.141c-.208.1-.311.208-.415.208V258h-4.773a3.293,3.293,0,0,0-2.075.623V258H194.84v.623a4.011,4.011,0,0,0-2.283-.623h-5.6v.623a3.937,3.937,0,0,0-2.386-.623h-6.225l-1.453,1.556L175.541,258H174.4l3.113,3.113,1.556-1.66h5.5c1.349,0,2.905.415,2.905,2.386,0,2.075-1.453,2.49-3.009,2.49h-2.075v1.556l1.556,1.556v-1.556h.519a6.312,6.312,0,0,0,2.386-.311v2.8h4.669v-2.7h.208c.311,0,.311,0,.311.311v2.386H206.15a4.068,4.068,0,0,0,2.386-.622v.622H213a4.117,4.117,0,0,0,2.49-.415Zm-20.648-3.735a2.354,2.354,0,0,1,.311,1.349v1.453h-1.764v-.934a2.316,2.316,0,0,0-.311-1.453c-.208-.311-.623-.311-1.245-.311h-1.868v2.7H188.2V259.66h3.943a4.178,4.178,0,0,1,2.075.311,1.835,1.835,0,0,1,.934,1.66,2.066,2.066,0,0,1-1.245,1.971A1.774,1.774,0,0,1,194.84,264.225ZM202,261.216h-4.047v1.349H201.9v1.453h-3.943v1.453H202v1.556h-5.81V259.66H202Zm4.358,5.811h-3.32v-1.556h3.32a.875.875,0,0,0,.726-.208.752.752,0,0,0,0-1.038.877.877,0,0,0-.623-.208c-1.66-.1-3.632,0-3.632-2.283,0-1.038.623-2.179,2.49-2.179h3.424v1.764h-3.216a1.539,1.539,0,0,0-.726.1c-.208.1-.208.311-.208.519,0,.311.208.415.415.519a1.317,1.317,0,0,0,.623.1h.934a2.642,2.642,0,0,1,1.971.623,2.148,2.148,0,0,1,.519,1.556C209.055,266.3,208.121,267.027,206.357,267.027Z" transform="translate(-162.053 -245.964)"/><path class="b" d="M459.2,284.223c0,.311.1.415.415.519a1.316,1.316,0,0,0,.623.1h.934a3.013,3.013,0,0,1,1.453.311l-1.556-1.556h-.934a1.538,1.538,0,0,0-.726.1A.793.793,0,0,0,459.2,284.223Z" transform="translate(-409.915 -268.244)"/><path class="b" d="M431.2,240.4l.208.311h.1Z" transform="translate(-385.547 -230.647)"/><path class="b" d="M387.2,196.4l1.764,4.254v-2.49Z" transform="translate(-347.253 -192.353)"/><path class="b" d="M101.4,172.671h.208c.208,0,.208,0,.208.311v2.283h7.471v-.623a6.216,6.216,0,0,0,2.8.623H115.2l.623-1.66h1.453l.623,1.66h6.018v-1.038l-1.453-1.453v1.141h-3.528l-.519-1.66h-3.632l-.623,1.66h-1.971a3.119,3.119,0,0,1-3.424-3.632,4.253,4.253,0,0,1,.934-2.905,3.27,3.27,0,0,1,2.594-.83h1.66v1.556H112.3a1.913,1.913,0,0,0-1.349.415,2.436,2.436,0,0,0-.519,1.66,2.257,2.257,0,0,0,.519,1.764,1.654,1.654,0,0,0,1.245.415h.726l2.386-5.707h1.038l-1.453-1.453h-2.7a6.317,6.317,0,0,0-2.905.623V165.2h-4.565v.623a2.991,2.991,0,0,0-1.971-.623h-16.7l-1.141,2.594L83.765,165.2H79.2l1.453,1.453h2.075l1.764,3.839.623.623,1.868-4.565h2.905v7.367H88.123v-5.707l-1.764,4.15,3.009,3.009H101.3Zm4.773-6.122h1.764v7.367h-1.764Zm-9.131,1.556H93v1.349h3.943v1.453H93v1.453h4.047v1.556h-5.81v-7.367h5.81Zm2.905,5.707H98.188v-7.367h3.943a3.978,3.978,0,0,1,2.075.311,1.768,1.768,0,0,1,.83,1.66,2.066,2.066,0,0,1-1.245,1.971,1.358,1.358,0,0,1,.83.623,2.6,2.6,0,0,1,.311,1.349v1.453h-1.764v-.934a2.472,2.472,0,0,0-.311-1.453c-.1-.208-.415-.208-1.038-.208H99.952v2.594Z" transform="translate(-79.2 -165.2)"/></g></g></svg>