<svg xmlns="http://www.w3.org/2000/svg" width="35.757" height="27.82" viewBox="0 0 35.757 27.82"><defs><style>.a{fill:#231f20;}.b{fill:#f79410;}.c{fill:#ff5f00;}.d{fill:#eb001b;}.e{fill:#f79e1b;}</style></defs><g transform="translate(0 0)"><g transform="translate(1.819 23.549)"><path class="a" d="M-152.472-17.88v.072h.067a.07.07,0,0,0,.037-.009.032.032,0,0,0,.013-.027.031.031,0,0,0-.013-.027.064.064,0,0,0-.037-.009Zm.067-.051a.124.124,0,0,1,.08.023.077.077,0,0,1,.028.063.073.073,0,0,1-.022.056.11.11,0,0,1-.064.027l.089.1h-.069l-.082-.1h-.027v.1h-.058v-.271Zm-.018.364a.214.214,0,0,0,.088-.018.231.231,0,0,0,.072-.048.226.226,0,0,0,.048-.072.231.231,0,0,0,.018-.089.231.231,0,0,0-.018-.089.234.234,0,0,0-.048-.072.231.231,0,0,0-.072-.048.225.225,0,0,0-.088-.017.235.235,0,0,0-.089.017.229.229,0,0,0-.073.048.22.22,0,0,0-.048.072.219.219,0,0,0-.018.089.219.219,0,0,0,.018.089.213.213,0,0,0,.048.072.229.229,0,0,0,.073.048.223.223,0,0,0,.089.018m0-.519a.292.292,0,0,1,.116.023.294.294,0,0,1,.094.063.286.286,0,0,1,.063.093.278.278,0,0,1,.023.113.278.278,0,0,1-.023.113.3.3,0,0,1-.063.093.319.319,0,0,1-.094.063.292.292,0,0,1-.116.023.3.3,0,0,1-.117-.023.305.305,0,0,1-.095-.063.3.3,0,0,1-.063-.093.278.278,0,0,1-.023-.113.278.278,0,0,1,.023-.113.286.286,0,0,1,.063-.093.283.283,0,0,1,.095-.063.3.3,0,0,1,.117-.023M-179.8-19.128a.881.881,0,0,1,.89-.94.88.88,0,0,1,.884.94.88.88,0,0,1-.884.94.881.881,0,0,1-.89-.94m2.376,0V-20.6h-.638v.356a1.112,1.112,0,0,0-.927-.43,1.471,1.471,0,0,0-1.468,1.541,1.471,1.471,0,0,0,1.468,1.541,1.112,1.112,0,0,0,.927-.43v.356h.638Zm21.564,0a.881.881,0,0,1,.89-.94.88.88,0,0,1,.884.94.88.88,0,0,1-.884.94.881.881,0,0,1-.89-.94m2.377,0v-2.646h-.639v1.535a1.113,1.113,0,0,0-.927-.43,1.471,1.471,0,0,0-1.468,1.541,1.471,1.471,0,0,0,1.468,1.541,1.113,1.113,0,0,0,.927-.43v.356h.639Zm-16.02-.97a.729.729,0,0,1,.743.712h-1.523a.756.756,0,0,1,.78-.712m.013-.571a1.434,1.434,0,0,0-1.462,1.541,1.447,1.447,0,0,0,1.5,1.541,1.784,1.784,0,0,0,1.2-.411l-.313-.473a1.4,1.4,0,0,1-.854.307.815.815,0,0,1-.878-.719h2.179c.006-.079.013-.16.013-.245a1.407,1.407,0,0,0-1.394-1.541m7.705,1.541a.881.881,0,0,1,.89-.94.88.88,0,0,1,.884.94.88.88,0,0,1-.884.94.881.881,0,0,1-.89-.94m2.376,0V-20.6h-.638v.356a1.113,1.113,0,0,0-.927-.43,1.471,1.471,0,0,0-1.468,1.541,1.471,1.471,0,0,0,1.468,1.541,1.113,1.113,0,0,0,.927-.43v.356h.638Zm-5.98,0a1.483,1.483,0,0,0,1.566,1.541,1.537,1.537,0,0,0,1.056-.35l-.306-.516a1.29,1.29,0,0,1-.768.264.877.877,0,0,1-.884-.94.877.877,0,0,1,.884-.94,1.29,1.29,0,0,1,.768.264l.306-.516a1.537,1.537,0,0,0-1.056-.35,1.483,1.483,0,0,0-1.566,1.541m8.227-1.541a.866.866,0,0,0-.774.43V-20.6h-.633v2.935h.639v-1.645c0-.486.209-.755.626-.755a1.035,1.035,0,0,1,.4.074l.2-.6a1.359,1.359,0,0,0-.455-.08m-17.106.307a2.2,2.2,0,0,0-1.2-.307c-.744,0-1.222.356-1.222.94,0,.479.356.774,1.013.866l.3.043c.35.049.515.141.515.307,0,.227-.233.356-.669.356a1.563,1.563,0,0,1-.976-.307l-.3.5a2.117,2.117,0,0,0,1.271.381c.848,0,1.339-.4,1.339-.958,0-.516-.387-.786-1.025-.878l-.3-.044c-.276-.037-.5-.091-.5-.288,0-.215.209-.344.559-.344a1.893,1.893,0,0,1,.915.252Zm8.234-.307a.864.864,0,0,0-.773.43V-20.6h-.632v2.935h.638v-1.645c0-.486.209-.755.626-.755a1.035,1.035,0,0,1,.4.074l.2-.6a1.359,1.359,0,0,0-.455-.08m-5.446.074h-1.044v-.89h-.645v.89h-.6v.583h.6v1.339c0,.681.264,1.086,1.019,1.086a1.5,1.5,0,0,0,.8-.227l-.184-.547a1.181,1.181,0,0,1-.565.166c-.319,0-.423-.2-.423-.491v-1.326h1.044Zm-9.542,2.935V-19.5a1.093,1.093,0,0,0-1.155-1.167,1.136,1.136,0,0,0-1.032.522,1.077,1.077,0,0,0-.97-.522.971.971,0,0,0-.859.436V-20.6h-.639v2.935h.644v-1.627a.687.687,0,0,1,.719-.78c.424,0,.638.276.638.774v1.633h.645v-1.627a.692.692,0,0,1,.718-.78c.436,0,.644.276.644.774v1.633Z" transform="translate(185.679 21.774)"/></g><g transform="translate(34.489 17.473)"><path class="b" d="M-4.276-1.968V-2.4h-.112l-.129.294L-4.645-2.4h-.112v.429h.079v-.323l.121.279h.082l.121-.28v.324Zm-.709,0v-.356h.143V-2.4h-.365v.072h.143v.356Z" transform="translate(5.207 2.397)"/></g><path class="c" d="M3352.675,2164.953H3343v-17.381h9.671Z" transform="translate(-3329.962 -2145.207)"/><g transform="translate(0 0)"><path class="d" d="M-62.73-50.755a11.035,11.035,0,0,1,4.222-8.691,11.005,11.005,0,0,0-6.831-2.363A11.053,11.053,0,0,0-76.392-50.755,11.053,11.053,0,0,0-65.339-39.7a11.005,11.005,0,0,0,6.831-2.363,11.035,11.035,0,0,1-4.222-8.691" transform="translate(76.392 61.809)"/></g><g transform="translate(17.873 0)"><path class="e" d="M-82.117-50.755A11.053,11.053,0,0,1-93.169-39.7,11.009,11.009,0,0,1-100-42.065a11.034,11.034,0,0,0,4.222-8.691A11.034,11.034,0,0,0-100-59.446a11.009,11.009,0,0,1,6.832-2.363A11.053,11.053,0,0,1-82.117-50.755" transform="translate(100.001 61.809)"/></g></g></svg>