<svg xmlns="http://www.w3.org/2000/svg" width="52.218" height="16.9" viewBox="0 0 52.218 16.9"><defs><style>.a{fill:#00579f;}.b{fill:#faa61a;}</style></defs><g transform="translate(0 0)"><path class="a" d="M437.737,127.086h-4.23l2.646-16.359h4.23Z" transform="translate(-415.109 -110.43)"/><path class="a" d="M577.868,105.744a10.425,10.425,0,0,0-3.794-.7c-4.177,0-7.119,2.228-7.137,5.412-.035,2.35,2.106,3.655,3.707,4.438,1.636.8,2.193,1.323,2.193,2.037-.017,1.1-1.322,1.6-2.54,1.6a8.419,8.419,0,0,1-3.969-.87l-.557-.261-.592,3.672a12.874,12.874,0,0,0,4.718.871c4.438,0,7.328-2.193,7.362-5.587.017-1.862-1.114-3.289-3.551-4.455-1.479-.749-2.386-1.253-2.386-2.019.017-.7.766-1.409,2.436-1.409a7.187,7.187,0,0,1,3.151.626l.383.174.575-3.533Z" transform="translate(-539.906 -105.048)"/><path class="a" d="M797.067,121.291c.348-.94,1.689-4.577,1.689-4.577-.018.035.348-.957.557-1.566l.3,1.41s.8,3.916.975,4.734Zm5.221-10.564h-3.272a2.087,2.087,0,0,0-2.211,1.357l-6.283,15h4.438l.888-2.454h5.431c.121.574.5,2.454.5,2.454H805.7l-3.413-16.359Z" transform="translate(-753.483 -110.43)"/><path class="a" d="M176.279,110.727l-4.143,11.156-.453-2.262a12.521,12.521,0,0,0-5.848-6.857l3.794,14.306H174.1l6.649-16.342Z" transform="translate(-161.414 -110.43)"/><path class="b" d="M88.041,110.727H81.235l-.07.331c5.309,1.358,8.825,4.63,10.269,8.563L89.956,112.1a1.75,1.75,0,0,0-1.915-1.375Z" transform="translate(-81.166 -110.43)"/></g></svg>