<svg xmlns="http://www.w3.org/2000/svg" width="30" height="29.993" viewBox="0 0 30 29.993"><defs><style>.a{fill:#666;}</style></defs><path class="a" d="M10,25.994a2.995,2.995,0,1,0,2.123.878A3,3,0,0,0,10,25.994ZM1,2V5H4L9.4,16.382,7.374,20.056A2.9,2.9,0,0,0,7,21.5a3.008,3.008,0,0,0,3,3h18V21.5H10.628a.371.371,0,0,1-.374-.374l.045-.181,1.35-2.444H22.826a2.985,2.985,0,0,0,2.625-1.545l5.368-9.734A1.466,1.466,0,0,0,31,6.5a1.5,1.5,0,0,0-1.5-1.5H7.314L5.9,2ZM24.994,25.994a2.995,2.995,0,1,0,2.122.877,3,3,0,0,0-2.122-.877Z" transform="translate(-1 -2)"/></svg>