<svg xmlns="http://www.w3.org/2000/svg" width="25" height="31.596" viewBox="0 0 25 31.596"><defs><style>.a{fill:#666;}</style></defs><path class="a" d="M-585.655,330.877h-24.988c0-.628-.014-1.238.009-1.848a.76.76,0,0,1,.215-.462,8.46,8.46,0,0,0,1.873-3.284,18.063,18.063,0,0,0,.906-5.915,7.931,7.931,0,0,1,1.113-4.279,8.645,8.645,0,0,1,5.125-3.607c.159-.049.328-.088.493-.13l.512-.128v-1.473a2.152,2.152,0,0,1,2.218-2.022,2.141,2.141,0,0,1,2.311,1.893,11.933,11.933,0,0,1,0,1.329c0,.2.076.269.293.319a9.642,9.642,0,0,1,4.992,2.69,6.7,6.7,0,0,1,1.839,3.905c.126,1.134.111,2.279.212,3.416a13.957,13.957,0,0,0,1.827,6.158c.21.347.506.654.736.993a1.393,1.393,0,0,1,.3.611C-585.629,329.648-585.655,330.251-585.655,330.877Z" transform="translate(610.647 -307.728)"/><path class="a" d="M-459.146,737.039h4.382c.353,0,.479.106.531.454a5.019,5.019,0,0,1-4.057,5.776,4.962,4.962,0,0,1-5.7-3.807,9.781,9.781,0,0,1-.069-1.962c0-.348.165-.464.515-.459C-462.066,737.049-460.607,737.039-459.146,737.039Z" transform="translate(471.628 -711.748)"/></svg>